<?xml version="1.0" standalone="no"?>
<!DOCTYPE svg PUBLIC "-//W3C//DTD SVG 20010904//EN"
 "http://www.w3.org/TR/2001/REC-SVG-20010904/DTD/svg10.dtd">
<svg version="1.0" xmlns="http://www.w3.org/2000/svg"
 width="1281.000000pt" height="714.000000pt" viewBox="0 0 1281.000000 714.000000"
 preserveAspectRatio="xMidYMid meet">

<g transform="translate(0.000000,714.000000) scale(0.100000,-0.100000)"
fill="#000000" stroke="none">
<path d="M5912 4056 c-52 -17 -90 -46 -164 -122 -92 -97 -149 -166 -171 -212
l-22 -43 24 -87 c13 -48 31 -115 40 -148 12 -48 27 -73 62 -111 53 -57 74
-109 65 -164 -8 -53 -45 -149 -57 -149 -17 0 -89 122 -105 177 l-16 53 -256
-2 -257 -3 -2 -480 c-1 -446 0 -474 13 -400 39 212 146 307 349 309 50 0 107
-3 129 -7 l38 -8 -7 -42 c-14 -83 -20 -273 -12 -396 13 -209 6 -315 -26 -386
-33 -70 -56 -98 -116 -136 l-44 -29 55 -24 c143 -63 310 -59 456 11 56 27 180
140 250 228 l33 40 -7 -50 c-9 -81 -34 -175 -66 -252 -29 -70 -30 -71 -61 -68
-18 2 -151 6 -297 9 -244 5 -790 32 -817 41 -6 2 -17 30 -24 62 -16 79 -3 137
58 243 l48 85 3 605 c1 333 0 615 -3 628 l-5 22 -984 0 c-888 0 -984 -2 -990
-16 -9 -25 -7 -1757 3 -1773 7 -11 65 -12 335 -6 l326 8 0 -102 c0 -83 -3
-101 -15 -101 -8 0 -15 -4 -15 -9 0 -4 -210 -11 -467 -15 l-468 -7 -230 -138
-230 -137 0 -73 0 -74 569 2 c314 1 572 4 575 6 4 1 490 6 1081 9 591 4 1462
11 1935 16 1657 19 2733 30 3068 30 l337 0 0 68 0 67 -282 141 -283 141 -392
-5 -393 -5 0 92 0 93 298 -4 297 -3 0 895 0 895 -979 3 c-715 1 -982 -1 -992
-9 -12 -9 -14 -101 -14 -503 l0 -492 79 -291 c44 -159 83 -306 86 -325 l7 -35
-64 -6 c-82 -8 -442 -25 -688 -32 l-195 -5 71 34 c192 90 374 258 453 415 61
120 63 207 11 421 -17 67 -28 125 -26 128 17 17 148 -94 198 -168 16 -24 17
-3 17 403 1 277 -3 435 -9 448 -9 16 -22 19 -85 19 -74 0 -75 0 -75 26 0 80
-45 212 -128 376 -93 186 -150 261 -227 298 -51 25 -410 107 -500 115 -38 3
-76 0 -103 -9z m-1702 -1046 c0 -7 -175 -10 -505 -10 -330 0 -505 3 -505 10 0
7 175 10 505 10 330 0 505 -3 505 -10z m0 -90 c0 -7 -175 -10 -505 -10 -330 0
-505 3 -505 10 0 7 175 10 505 10 330 0 505 -3 505 -10z m0 -90 c0 -7 -175
-10 -505 -10 -330 0 -505 3 -505 10 0 7 175 10 505 10 330 0 505 -3 505 -10z
m510 -1383 c0 -24 -3 -78 -6 -119 l-7 -75 -246 -6 c-300 -7 -281 -16 -281 132
l0 100 153 4 c83 1 205 4 270 5 l117 2 0 -43z m3258 28 c8 -3 12 -32 12 -98
l0 -94 -61 -7 c-34 -3 -131 -6 -215 -6 l-154 0 0 33 c0 19 3 67 6 108 l7 74
196 -3 c108 -2 202 -5 209 -7z"/>
</g>
</svg>
